<svg xmlns="http://www.w3.org/2000/svg" viewBox="0 0 35.8 35.8"><defs><style>.\31 2785f23-3366-4d14-b159-d29edb3cd040{fill:none;stroke:#484848;stroke-miterlimit:10;}.c15816eb-ed44-4efd-86e3-400caa0c6cef{fill:#484848;}</style></defs><title>instagram-Asset 73icon</title><g id="0ff29b4a-f03c-43cd-acea-e09dcd020f46" data-name="Layer 2"><g id="ffea6ff0-80ac-4805-b464-8eb1907b7cef" data-name="Layer 1"><path class="12785f23-3366-4d14-b159-d29edb3cd040" d="M35.3,17.9A17.4,17.4,0,1,1,17.9.5,17.41,17.41,0,0,1,35.3,17.9Z"/><path class="12785f23-3366-4d14-b159-d29edb3cd040" d="M26.1,22.8A3.16,3.16,0,0,1,22.9,26H13.1a3.16,3.16,0,0,1-3.2-3.2V13a3.16,3.16,0,0,1,3.2-3.2h9.8A3.16,3.16,0,0,1,26.1,13Z"/><circle class="12785f23-3366-4d14-b159-d29edb3cd040" cx="17.9" cy="17.9" r="4"/><path class="c15816eb-ed44-4efd-86e3-400caa0c6cef" d="M23.1,12a1,1,0,0,0-1,1,1,1,0,0,0,2,0,1,1,0,0,0-1-1Z"/></g></g></svg>