<svg xmlns="http://www.w3.org/2000/svg" width="66.846" height="66.846" viewBox="0 0 66.846 66.846">
  <g id="Group_882" data-name="Group 882" transform="translate(-566.077 -427.077)">
    <rect id="Rectangle_151" data-name="Rectangle 151" width="66.846" height="66.846" transform="translate(566.077 427.077)" fill="#d8d8d8"/>
    <path id="Path_1266" data-name="Path 1266" d="M14.319-30.486a3.485,3.485,0,0,1,2.562,1.05,3.485,3.485,0,0,1,1.05,2.562v21.5a3.485,3.485,0,0,1-1.05,2.562,3.485,3.485,0,0,1-2.562,1.05H-14.319a3.485,3.485,0,0,1-2.562-1.05,3.485,3.485,0,0,1-1.05-2.562v-21.5a3.485,3.485,0,0,1,1.05-2.562,3.485,3.485,0,0,1,2.562-1.05Zm0,7.223v-3.611L-.042-17.889l-14.277-8.986v3.611l14.277,8.9Z" transform="translate(600 477)" fill="#fff"/>
  </g>
</svg>
