<svg xmlns="http://www.w3.org/2000/svg" width="66.846" height="66.846" viewBox="0 0 66.846 66.846">
  <g id="Group_858" data-name="Group 858" transform="translate(-988.955 -436.955)">
    <rect id="Rectangle_58" data-name="Rectangle 58" width="66.846" height="66.846" transform="translate(988.955 436.955)" fill="#ec5a24"/>
    <path id="Path_1267" data-name="Path 1267" d="M-6.963-13.2A19,19,0,0,0,1.574-4.662L4.42-7.508a1.111,1.111,0,0,1,1.332-.3,14.456,14.456,0,0,0,4.6.727,1.264,1.264,0,0,1,.878.363,1.185,1.185,0,0,1,.394.908v4.541a1.216,1.216,0,0,1-.394.878A1.216,1.216,0,0,1,10.354,0,21.611,21.611,0,0,1-.7-2.937a21.688,21.688,0,0,1-7.992-7.992,21.611,21.611,0,0,1-2.937-11.05,1.216,1.216,0,0,1,.394-.878,1.216,1.216,0,0,1,.878-.394h4.541a1.185,1.185,0,0,1,.908.394,1.264,1.264,0,0,1,.363.878,14.456,14.456,0,0,0,.727,4.6,1.238,1.238,0,0,1-.3,1.332Z" transform="translate(1022.878 481.878)" fill="#fff"/>
  </g>
</svg>
