<svg xmlns="http://www.w3.org/2000/svg" width="17.438" height="17.438" viewBox="0 0 17.438 17.438">
  <path id="Path_176" data-name="Path 176" d="M9-15.469a8.452,8.452,0,0,0-4.359,1.178,8.81,8.81,0,0,0-3.182,3.182A8.452,8.452,0,0,0,.281-6.75,8.452,8.452,0,0,0,1.459-2.391,8.81,8.81,0,0,0,4.641.791,8.452,8.452,0,0,0,9,1.969,8.452,8.452,0,0,0,13.359.791a8.81,8.81,0,0,0,3.182-3.182A8.452,8.452,0,0,0,17.719-6.75a8.452,8.452,0,0,0-1.178-4.359,8.81,8.81,0,0,0-3.182-3.182A8.452,8.452,0,0,0,9-15.469Zm4.289,11a.514.514,0,0,1,.105.316.38.38,0,0,1-.105.281L11.883-2.461a.49.49,0,0,1-.3.105.49.49,0,0,1-.3-.105L9-4.781,6.715-2.461a.514.514,0,0,1-.316.105.38.38,0,0,1-.281-.105L4.711-3.867a.49.49,0,0,1-.105-.3.49.49,0,0,1,.105-.3L7.031-6.75,4.711-9.035a.514.514,0,0,1-.105-.316.38.38,0,0,1,.105-.281l1.406-1.406a.49.49,0,0,1,.3-.105.49.49,0,0,1,.3.105L9-8.719l2.285-2.32a.514.514,0,0,1,.316-.105.38.38,0,0,1,.281.105l1.406,1.406a.49.49,0,0,1,.105.3.49.49,0,0,1-.105.3L10.969-6.75Z" transform="translate(-0.281 15.469)" fill="#ec5a24"/>
</svg>
